<?xml version="1.0" encoding="UTF-8" standalone="no"?>
<svg
   xmlns:dc="http://purl.org/dc/elements/1.1/"
   xmlns:cc="http://creativecommons.org/ns#"
   xmlns:rdf="http://www.w3.org/1999/02/22-rdf-syntax-ns#"
   xmlns:svg="http://www.w3.org/2000/svg"
   xmlns="http://www.w3.org/2000/svg"
   xmlns:sodipodi="http://sodipodi.sourceforge.net/DTD/sodipodi-0.dtd"
   xmlns:inkscape="http://www.inkscape.org/namespaces/inkscape"
   sodipodi:docname="YmMessageBroker.svg"
   inkscape:version="1.0 (4035a4fb49, 2020-05-01)"
   id="svg8"
   version="1.1"
   viewBox="0 0 210 297"
   height="297mm"
   width="210mm">
  <defs
     id="defs2" />
  <sodipodi:namedview
     showguides="true"
     inkscape:window-maximized="0"
     inkscape:window-y="0"
     inkscape:window-x="1913"
     inkscape:window-height="1368"
     inkscape:window-width="1718"
     showgrid="false"
     inkscape:document-rotation="0"
     inkscape:current-layer="layer1"
     inkscape:document-units="mm"
     inkscape:cy="29.251029"
     inkscape:cx="187.67577"
     inkscape:zoom="2.8284271"
     inkscape:pageshadow="2"
     inkscape:pageopacity="0.0"
     borderopacity="1.0"
     bordercolor="#666666"
     pagecolor="#ffffff"
     id="base">
    <inkscape:grid
       id="grid50"
       type="xygrid" />
  </sodipodi:namedview>
  <metadata
     id="metadata5">
    <rdf:RDF>
      <cc:Work
         rdf:about="">
        <dc:format>image/svg+xml</dc:format>
        <dc:type
           rdf:resource="http://purl.org/dc/dcmitype/StillImage" />
        <dc:title></dc:title>
      </cc:Work>
    </rdf:RDF>
  </metadata>
  <g
     id="layer1"
     inkscape:groupmode="layer"
     inkscape:label="Ebene 1">
    <rect
       inkscape:export-ydpi="676"
       inkscape:export-xdpi="676"
       inkscape:export-filename="C:\Users\Jakob.Heitzmann\rect12.png"
       ry="1.674577"
       y="20"
       x="10"
       height="10"
       width="10"
       id="rect12"
       style="fill:#333333;stroke-width:0.264583" />
    <rect
       inkscape:export-ydpi="676"
       inkscape:export-xdpi="676"
       inkscape:export-filename="C:\Users\Jakob.Heitzmann\rect12.png"
       ry="1.674577"
       y="20"
       x="30"
       height="10"
       width="15"
       id="rect14"
       style="fill:#008080;stroke-width:0.324047" />
    <rect
       inkscape:export-ydpi="676"
       inkscape:export-xdpi="676"
       inkscape:export-filename="C:\Users\Jakob.Heitzmann\rect12.png"
       ry="1.2985485"
       y="5"
       x="75"
       height="10"
       width="13"
       id="rect20"
       style="fill:#217867;stroke-width:0.301671" />
    <rect
       inkscape:export-ydpi="676"
       inkscape:export-xdpi="676"
       inkscape:export-filename="C:\Users\Jakob.Heitzmann\rect12.png"
       style="fill:#217867;stroke-width:0.301671"
       id="rect22"
       width="13"
       height="10"
       x="75"
       y="20"
       ry="1.2985485" />
    <rect
       inkscape:export-ydpi="676"
       inkscape:export-xdpi="676"
       inkscape:export-filename="C:\Users\Jakob.Heitzmann\rect12.png"
       ry="1.2985485"
       y="35"
       x="75"
       height="10"
       width="13"
       id="rect24"
       style="fill:#217867;stroke-width:0.301671" />
    <text
       inkscape:export-ydpi="676"
       inkscape:export-xdpi="676"
       inkscape:export-filename="C:\Users\Jakob.Heitzmann\rect12.png"
       transform="scale(1.0515848,0.95094566)"
       id="text28"
       y="26.856468"
       x="10.301928"
       style="font-style:normal;font-weight:normal;font-size:2.72097px;line-height:1.25;font-family:sans-serif;fill:#ffffff;fill-opacity:1;stroke:none;stroke-width:0.0680243"
       xml:space="preserve"><tspan
         style="font-size:2.82222px;fill:#ffffff;stroke-width:0.0680243"
         y="26.856468"
         x="10.301928"
         id="tspan26"
         sodipodi:role="line">Client</tspan></text>
    <text
       inkscape:export-ydpi="676"
       inkscape:export-xdpi="676"
       inkscape:export-filename="C:\Users\Jakob.Heitzmann\rect12.png"
       transform="scale(1.0284837,0.97230515)"
       id="text32"
       y="24.889378"
       x="33.216972"
       style="font-style:normal;font-weight:normal;font-size:2.82222px;line-height:1.25;font-family:sans-serif;fill:#ffffff;fill-opacity:1;stroke:none;stroke-width:0.0707302"
       xml:space="preserve"><tspan
         id="tspan34"
         style="font-size:2.82222px;fill:#ffffff;stroke-width:0.0707302"
         y="24.889378"
         x="33.216972"
         sodipodi:role="line">API-</tspan></text>
    <text
       inkscape:export-ydpi="676"
       inkscape:export-xdpi="676"
       inkscape:export-filename="C:\Users\Jakob.Heitzmann\rect12.png"
       transform="scale(1.0492657,0.95304745)"
       id="text40"
       y="28.091673"
       x="29.609962"
       style="font-style:normal;font-weight:normal;font-size:2.82222px;line-height:1.25;font-family:sans-serif;fill:#ffffff;fill-opacity:1;stroke:none;stroke-width:0.0557289"
       xml:space="preserve"><tspan
         style="font-size:2.82222px;fill:#ffffff;stroke-width:0.0557289"
         y="28.091673"
         x="29.609962"
         id="tspan38"
         sodipodi:role="line">Gateway</tspan></text>
    <text
       inkscape:export-ydpi="676"
       inkscape:export-xdpi="676"
       inkscape:export-filename="C:\Users\Jakob.Heitzmann\rect12.png"
       transform="scale(0.75303603,1.3279577)"
       id="text44"
       y="2.44223"
       x="98.657234"
       style="font-style:normal;font-weight:normal;font-size:2.82227px;line-height:1.25;font-family:sans-serif;fill:#000000;fill-opacity:1;stroke:none;stroke-width:0.0503994"
       xml:space="preserve"><tspan
         style="font-size:2.82227px;stroke-width:0.0503994"
         y="2.44223"
         x="98.657234"
         id="tspan42"
         sodipodi:role="line">Microservices</tspan></text>
    <text
       inkscape:export-ydpi="676"
       inkscape:export-xdpi="676"
       inkscape:export-filename="C:\Users\Jakob.Heitzmann\rect12.png"
       transform="scale(0.8177343,1.2228911)"
       id="text48"
       y="9.0398455"
       x="93.366508"
       style="font-style:normal;font-weight:normal;font-size:2.82222px;line-height:1.25;font-family:sans-serif;fill:#ffffff;fill-opacity:1;stroke:none;stroke-width:0.0542684"
       xml:space="preserve"><tspan
         style="font-size:2.82222px;fill:#ffffff;stroke-width:0.0542684"
         y="9.0398455"
         x="93.366508"
         id="tspan46"
         sodipodi:role="line">Service 1</tspan></text>
    <text
       inkscape:export-ydpi="676"
       inkscape:export-xdpi="676"
       inkscape:export-filename="C:\Users\Jakob.Heitzmann\rect12.png"
       xml:space="preserve"
       style="font-style:normal;font-weight:normal;font-size:2.82222px;line-height:1.25;font-family:sans-serif;fill:#ffffff;fill-opacity:1;stroke:none;stroke-width:0.0542684"
       x="93.366508"
       y="21.305861"
       id="text64"
       transform="scale(0.8177343,1.2228911)"><tspan
         sodipodi:role="line"
         id="tspan62"
         x="93.366508"
         y="21.305861"
         style="font-size:2.82222px;fill:#ffffff;stroke-width:0.0542684">Service 2</tspan></text>
    <text
       inkscape:export-ydpi="676"
       inkscape:export-xdpi="676"
       inkscape:export-filename="C:\Users\Jakob.Heitzmann\rect12.png"
       transform="scale(0.8177343,1.2228911)"
       id="text68"
       y="33.571877"
       x="93.366508"
       style="font-style:normal;font-weight:normal;font-size:2.82222px;line-height:1.25;font-family:sans-serif;fill:#ffffff;fill-opacity:1;stroke:none;stroke-width:0.0542684"
       xml:space="preserve"><tspan
         style="font-size:2.82222px;fill:#ffffff;stroke-width:0.0542684"
         y="33.571877"
         x="93.366508"
         id="tspan66"
         sodipodi:role="line">Service 3</tspan></text>
    <rect
       inkscape:export-ydpi="676"
       inkscape:export-xdpi="676"
       inkscape:export-filename="C:\Users\Jakob.Heitzmann\rect12.png"
       ry="1.226975"
       y="20"
       x="52"
       height="10"
       width="15"
       id="rect72"
       style="fill:#008080;stroke-width:0.261116" />
    <text
       inkscape:export-ydpi="676"
       inkscape:export-xdpi="676"
       inkscape:export-filename="C:\Users\Jakob.Heitzmann\rect12.png"
       id="text76"
       y="24.051897"
       x="52.724392"
       style="font-style:normal;font-weight:normal;font-size:2.82222px;line-height:1.25;font-family:sans-serif;fill:#ffffff;fill-opacity:1;stroke:none;stroke-width:0.264583"
       xml:space="preserve"><tspan
         id="tspan78"
         style="font-size:2.82222px;fill:#ffffff;stroke-width:0.264583"
         y="24.051897"
         x="52.724392"
         sodipodi:role="line">Message</tspan></text>
    <text
       inkscape:export-ydpi="676"
       inkscape:export-xdpi="676"
       inkscape:export-filename="C:\Users\Jakob.Heitzmann\rect12.png"
       id="text84"
       y="27.144226"
       x="52.724392"
       style="font-style:normal;font-weight:normal;font-size:2.82222px;line-height:1.25;font-family:sans-serif;fill:#ffffff;fill-opacity:1;stroke:none;stroke-width:0.264583"
       xml:space="preserve"><tspan
         style="font-size:2.82222px;fill:#ffffff;stroke-width:0.264583"
         y="27.144226"
         x="52.724392"
         id="tspan82"
         sodipodi:role="line">Broker</tspan></text>
    <path
       inkscape:export-ydpi="676"
       inkscape:export-xdpi="676"
       inkscape:export-filename="C:\Users\Jakob.Heitzmann\rect12.png"
       id="path88"
       d="m 26.719135,23.14416 c 0.05606,0 3.138242,2.357163 3.11295,2.38069 -0.03533,0.03292 -3.114926,2.344013 -3.123394,2.344013 -0.003,0 -0.0054,-1.063059 -0.0054,-2.362352 0,-1.299293 0.0071,-2.362351 0.01586,-2.362351 z"
       style="fill:#ffffff;stroke-width:0.031498" />
    <path
       inkscape:export-ydpi="676"
       inkscape:export-xdpi="676"
       inkscape:export-filename="C:\Users\Jakob.Heitzmann\rect12.png"
       id="path90"
       d="m 26.719135,23.14416 c 0.05606,0 3.138242,2.357163 3.11295,2.38069 -0.03533,0.03292 -3.114926,2.344013 -3.123394,2.344013 -0.003,0 -0.0054,-1.063059 -0.0054,-2.362352 0,-1.299293 0.0071,-2.362351 0.01586,-2.362351 z"
       style="fill:#ffffff;stroke-width:0.031498" />
    <path
       inkscape:export-ydpi="676"
       inkscape:export-xdpi="676"
       inkscape:export-filename="C:\Users\Jakob.Heitzmann\rect12.png"
       id="path92"
       d="m 26.719135,23.14416 c 0.05606,0 3.138242,2.357163 3.11295,2.38069 -0.03533,0.03292 -3.114926,2.344013 -3.123394,2.344013 -0.003,0 -0.0054,-1.063059 -0.0054,-2.362352 0,-1.299293 0.0071,-2.362351 0.01586,-2.362351 z"
       style="fill:#ffffff;stroke-width:0.031498" />
    <path
       inkscape:export-ydpi="676"
       inkscape:export-xdpi="676"
       inkscape:export-filename="C:\Users\Jakob.Heitzmann\rect12.png"
       id="path94"
       d="m 26.719135,23.14416 c 0.05606,0 3.138242,2.357163 3.11295,2.38069 -0.03533,0.03292 -3.114926,2.344013 -3.123394,2.344013 -0.003,0 -0.0054,-1.063059 -0.0054,-2.362352 0,-1.299293 0.0071,-2.362351 0.01586,-2.362351 z"
       style="fill:#ffffff;stroke-width:0.031498" />
    <path
       inkscape:export-ydpi="676"
       inkscape:export-xdpi="676"
       inkscape:export-filename="C:\Users\Jakob.Heitzmann\rect12.png"
       id="path96"
       d="m 26.719135,23.14416 c 0.05606,0 3.138242,2.357163 3.11295,2.38069 -0.03533,0.03292 -3.114926,2.344013 -3.123394,2.344013 -0.003,0 -0.0054,-1.063059 -0.0054,-2.362352 0,-1.299293 0.0071,-2.362351 0.01586,-2.362351 z"
       style="fill:#ffffff;stroke-width:0.031498" />
    <path
       inkscape:export-ydpi="676"
       inkscape:export-xdpi="676"
       inkscape:export-filename="C:\Users\Jakob.Heitzmann\rect12.png"
       id="path98"
       d="m 26.683555,23 c 0.05972,0 3.343224,2.494508 3.316279,2.519406 -0.03765,0.03483 -3.318386,2.480593 -3.327407,2.480594 -0.0033,0 -0.0058,-1.125001 -0.0058,-2.500001 3.8e-5,-1.374999 0.0076,-2.5 0.01693,-2.499999 z"
       style="fill:#000000;stroke-width:0.0334443" />
    <rect
       inkscape:export-ydpi="676"
       inkscape:export-xdpi="676"
       inkscape:export-filename="C:\Users\Jakob.Heitzmann\rect12.png"
       transform="rotate(90)"
       ry="0"
       y="-26.766668"
       x="24.500002"
       height="6.6666675"
       width="2"
       id="rect100"
       style="fill:#000000;stroke-width:0.124726" />
    <path
       inkscape:export-ydpi="676"
       inkscape:export-xdpi="676"
       inkscape:export-filename="C:\Users\Jakob.Heitzmann\rect12.png"
       style="fill:#ffffff;stroke-width:0.0203687"
       d="m 49.713336,24.086496 c 0.03907,0 2.187259,1.414298 2.169631,1.428414 -0.02462,0.01975 -2.171009,1.406408 -2.176911,1.406408 -0.0021,0 -0.0037,-0.637836 -0.0037,-1.417411 0,-0.779576 0.0049,-1.417411 0.01111,-1.417411 z"
       id="path102" />
    <path
       inkscape:export-ydpi="676"
       inkscape:export-xdpi="676"
       inkscape:export-filename="C:\Users\Jakob.Heitzmann\rect12.png"
       style="fill:#ffffff;stroke-width:0.0203687"
       d="m 49.713336,24.086496 c 0.03907,0 2.187259,1.414298 2.169631,1.428414 -0.02462,0.01975 -2.171009,1.406408 -2.176911,1.406408 -0.0021,0 -0.0037,-0.637836 -0.0037,-1.417411 0,-0.779576 0.0049,-1.417411 0.01111,-1.417411 z"
       id="path104" />
    <path
       inkscape:export-ydpi="676"
       inkscape:export-xdpi="676"
       inkscape:export-filename="C:\Users\Jakob.Heitzmann\rect12.png"
       style="fill:#ffffff;stroke-width:0.0203687"
       d="m 49.713336,24.086496 c 0.03907,0 2.187259,1.414298 2.169631,1.428414 -0.02462,0.01975 -2.171009,1.406408 -2.176911,1.406408 -0.0021,0 -0.0037,-0.637836 -0.0037,-1.417411 0,-0.779576 0.0049,-1.417411 0.01111,-1.417411 z"
       id="path106" />
    <path
       inkscape:export-ydpi="676"
       inkscape:export-xdpi="676"
       inkscape:export-filename="C:\Users\Jakob.Heitzmann\rect12.png"
       style="fill:#ffffff;stroke-width:0.0203687"
       d="m 49.713336,24.086496 c 0.03907,0 2.187259,1.414298 2.169631,1.428414 -0.02462,0.01975 -2.171009,1.406408 -2.176911,1.406408 -0.0021,0 -0.0037,-0.637836 -0.0037,-1.417411 0,-0.779576 0.0049,-1.417411 0.01111,-1.417411 z"
       id="path108" />
    <path
       inkscape:export-ydpi="676"
       inkscape:export-xdpi="676"
       inkscape:export-filename="C:\Users\Jakob.Heitzmann\rect12.png"
       style="fill:#ffffff;stroke-width:0.0203687"
       d="m 49.713336,24.086496 c 0.03907,0 2.187259,1.414298 2.169631,1.428414 -0.02462,0.01975 -2.171009,1.406408 -2.176911,1.406408 -0.0021,0 -0.0037,-0.637836 -0.0037,-1.417411 0,-0.779576 0.0049,-1.417411 0.01111,-1.417411 z"
       id="path110" />
    <path
       inkscape:export-ydpi="676"
       inkscape:export-xdpi="676"
       inkscape:export-filename="C:\Users\Jakob.Heitzmann\rect12.png"
       style="fill:#000000;stroke-width:0.0216274"
       d="m 49.688537,24 c 0.04162,0 2.330126,1.496705 2.311347,1.511644 -0.02624,0.0209 -2.312815,1.488355 -2.319102,1.488356 -0.0023,0 -0.0041,-0.675001 -0.0041,-1.500001 2.7e-5,-0.824999 0.0053,-1.5 0.0118,-1.499999 z"
       id="path112" />
    <rect
       inkscape:export-ydpi="676"
       inkscape:export-xdpi="676"
       inkscape:export-filename="C:\Users\Jakob.Heitzmann\rect12.png"
       style="fill:#000000;stroke-width:0.0806565"
       id="rect114"
       width="1.2"
       height="4.6464643"
       x="24.900002"
       y="-49.746464"
       ry="0"
       transform="rotate(90)" />
    <path
       inkscape:export-ydpi="676"
       inkscape:export-xdpi="676"
       inkscape:export-filename="C:\Users\Jakob.Heitzmann\rect12.png"
       id="path116"
       d="m 69.618063,26.913504 c -0.04473,0 -2.504252,-1.414297 -2.48407,-1.428413 0.02821,-0.01973 2.485648,-1.406408 2.492407,-1.406409 0.0024,0 0.0042,0.637836 0.0042,1.417411 -2e-6,0.779576 -0.0056,1.417411 -0.01272,1.417411 z"
       style="fill:#ffffff;stroke-width:0.0217948" />
    <path
       inkscape:export-ydpi="676"
       inkscape:export-xdpi="676"
       inkscape:export-filename="C:\Users\Jakob.Heitzmann\rect12.png"
       id="path118"
       d="m 69.618063,26.913504 c -0.04473,0 -2.504252,-1.414297 -2.48407,-1.428413 0.02821,-0.01973 2.485648,-1.406408 2.492407,-1.406409 0.0024,0 0.0042,0.637836 0.0042,1.417411 -2e-6,0.779576 -0.0056,1.417411 -0.01272,1.417411 z"
       style="fill:#ffffff;stroke-width:0.0217948" />
    <path
       inkscape:export-ydpi="676"
       inkscape:export-xdpi="676"
       inkscape:export-filename="C:\Users\Jakob.Heitzmann\rect12.png"
       id="path120"
       d="m 69.618063,26.913504 c -0.04473,0 -2.504252,-1.414297 -2.48407,-1.428413 0.02821,-0.01973 2.485648,-1.406408 2.492407,-1.406409 0.0024,0 0.0042,0.637836 0.0042,1.417411 -2e-6,0.779576 -0.0056,1.417411 -0.01272,1.417411 z"
       style="fill:#ffffff;stroke-width:0.0217948" />
    <path
       inkscape:export-ydpi="676"
       inkscape:export-xdpi="676"
       inkscape:export-filename="C:\Users\Jakob.Heitzmann\rect12.png"
       id="path122"
       d="m 69.618063,26.913504 c -0.04473,0 -2.504252,-1.414297 -2.48407,-1.428413 0.02821,-0.01973 2.485648,-1.406408 2.492407,-1.406409 0.0024,0 0.0042,0.637836 0.0042,1.417411 -2e-6,0.779576 -0.0056,1.417411 -0.01272,1.417411 z"
       style="fill:#ffffff;stroke-width:0.0217948" />
    <path
       inkscape:export-ydpi="676"
       inkscape:export-xdpi="676"
       inkscape:export-filename="C:\Users\Jakob.Heitzmann\rect12.png"
       id="path124"
       d="m 69.618063,26.913504 c -0.04473,0 -2.504252,-1.414297 -2.48407,-1.428413 0.02821,-0.01973 2.485648,-1.406408 2.492407,-1.406409 0.0024,0 0.0042,0.637836 0.0042,1.417411 -2e-6,0.779576 -0.0056,1.417411 -0.01272,1.417411 z"
       style="fill:#ffffff;stroke-width:0.0217948" />
    <path
       inkscape:export-ydpi="676"
       inkscape:export-xdpi="676"
       inkscape:export-filename="C:\Users\Jakob.Heitzmann\rect12.png"
       id="path126"
       d="m 69.646458,27 c -0.04765,0 -2.667826,-1.496705 -2.646326,-1.511644 0.03007,-0.02087 2.648006,-1.488355 2.655202,-1.488356 0.0025,0 0.0047,0.675001 0.0047,1.500001 -3.1e-5,0.824999 -0.0061,1.500001 -0.01351,1.499999 z"
       style="fill:#000000;stroke-width:0.0231416" />
    <rect
       inkscape:export-ydpi="676"
       inkscape:export-xdpi="676"
       inkscape:export-filename="C:\Users\Jakob.Heitzmann\rect12.png"
       transform="rotate(-90)"
       ry="0"
       y="69.580124"
       x="-26.099997"
       height="5.3198652"
       width="1.2"
       id="rect128"
       style="fill:#000000;stroke-width:0.0863035" />
    <path
       inkscape:export-ydpi="676"
       inkscape:export-xdpi="676"
       inkscape:export-filename="C:\Users\Jakob.Heitzmann\rect12.png"
       style="fill:#ffffff;stroke-width:0.0217948"
       d="m 69.851932,20.090433 c -0.03663,0.02568 -2.862568,0.277857 -2.854131,0.254724 0.01176,-0.03235 1.229441,-2.577772 1.234977,-2.581652 0.0019,-0.0013 0.369292,0.520073 0.816435,1.158665 0.44714,0.638595 0.808406,1.164287 0.802573,1.168371 z"
       id="path130" />
    <path
       inkscape:export-ydpi="676"
       inkscape:export-xdpi="676"
       inkscape:export-filename="C:\Users\Jakob.Heitzmann\rect12.png"
       style="fill:#ffffff;stroke-width:0.0217948"
       d="m 69.851932,20.090433 c -0.03663,0.02568 -2.862568,0.277857 -2.854131,0.254724 0.01176,-0.03235 1.229441,-2.577772 1.234977,-2.581652 0.0019,-0.0013 0.369292,0.520073 0.816435,1.158665 0.44714,0.638595 0.808406,1.164287 0.802573,1.168371 z"
       id="path132" />
    <path
       inkscape:export-ydpi="676"
       inkscape:export-xdpi="676"
       inkscape:export-filename="C:\Users\Jakob.Heitzmann\rect12.png"
       style="fill:#ffffff;stroke-width:0.0217948"
       d="m 69.851932,20.090433 c -0.03663,0.02568 -2.862568,0.277857 -2.854131,0.254724 0.01176,-0.03235 1.229441,-2.577772 1.234977,-2.581652 0.0019,-0.0013 0.369292,0.520073 0.816435,1.158665 0.44714,0.638595 0.808406,1.164287 0.802573,1.168371 z"
       id="path134" />
    <path
       inkscape:export-ydpi="676"
       inkscape:export-xdpi="676"
       inkscape:export-filename="C:\Users\Jakob.Heitzmann\rect12.png"
       style="fill:#ffffff;stroke-width:0.0217948"
       d="m 69.851932,20.090433 c -0.03663,0.02568 -2.862568,0.277857 -2.854131,0.254724 0.01176,-0.03235 1.229441,-2.577772 1.234977,-2.581652 0.0019,-0.0013 0.369292,0.520073 0.816435,1.158665 0.44714,0.638595 0.808406,1.164287 0.802573,1.168371 z"
       id="path136" />
    <path
       inkscape:export-ydpi="676"
       inkscape:export-xdpi="676"
       inkscape:export-filename="C:\Users\Jakob.Heitzmann\rect12.png"
       style="fill:#ffffff;stroke-width:0.0217948"
       d="m 69.851932,20.090433 c -0.03663,0.02568 -2.862568,0.277857 -2.854131,0.254724 0.01176,-0.03235 1.229441,-2.577772 1.234977,-2.581652 0.0019,-0.0013 0.369292,0.520073 0.816435,1.158665 0.44714,0.638595 0.808406,1.164287 0.802573,1.168371 z"
       id="path138" />
    <path
       inkscape:export-ydpi="676"
       inkscape:export-xdpi="676"
       inkscape:export-filename="C:\Users\Jakob.Heitzmann\rect12.png"
       style="fill:#000000;stroke-width:0.0231416"
       d="m 69.924805,20.145 c -0.03901,0.02735 -3.04383,0.304175 -3.034785,0.279603 0.01264,-0.03435 1.315432,-2.738021 1.321326,-2.742151 0.0021,-0.0014 0.391013,0.550235 0.864216,1.226036 0.473172,0.675817 0.855367,1.232226 0.849295,1.236473 z"
       id="path140" />
    <rect
       inkscape:export-ydpi="676"
       inkscape:export-xdpi="676"
       inkscape:export-filename="C:\Users\Jakob.Heitzmann\rect12.png"
       transform="rotate(-125)"
       style="fill:#000000;stroke-width:0.102473"
       id="rect142"
       width="1.2"
       height="7.5"
       x="-55.709042"
       y="45.658031"
       ry="0" />
    <path
       inkscape:export-ydpi="676"
       inkscape:export-xdpi="676"
       inkscape:export-filename="C:\Users\Jakob.Heitzmann\rect12.png"
       id="path144"
       d="m 69.851934,29.896713 c -0.0366,-0.02571 -2.862568,-0.277859 -2.854132,-0.254722 0.01176,0.03235 1.229439,2.577772 1.234975,2.581649 0.0019,0.0013 0.369294,-0.52007 0.816436,-1.158663 0.44714,-0.638595 0.808408,-1.164288 0.802573,-1.168372 z"
       style="fill:#ffffff;stroke-width:0.0217948" />
    <path
       inkscape:export-ydpi="676"
       inkscape:export-xdpi="676"
       inkscape:export-filename="C:\Users\Jakob.Heitzmann\rect12.png"
       id="path146"
       d="m 69.851934,29.896713 c -0.0366,-0.02571 -2.862568,-0.277859 -2.854132,-0.254722 0.01176,0.03235 1.229439,2.577772 1.234975,2.581649 0.0019,0.0013 0.369294,-0.52007 0.816436,-1.158663 0.44714,-0.638595 0.808408,-1.164288 0.802573,-1.168372 z"
       style="fill:#ffffff;stroke-width:0.0217948" />
    <path
       inkscape:export-ydpi="676"
       inkscape:export-xdpi="676"
       inkscape:export-filename="C:\Users\Jakob.Heitzmann\rect12.png"
       id="path148"
       d="m 69.851934,29.896713 c -0.0366,-0.02571 -2.862568,-0.277859 -2.854132,-0.254722 0.01176,0.03235 1.229439,2.577772 1.234975,2.581649 0.0019,0.0013 0.369294,-0.52007 0.816436,-1.158663 0.44714,-0.638595 0.808408,-1.164288 0.802573,-1.168372 z"
       style="fill:#ffffff;stroke-width:0.0217948" />
    <path
       inkscape:export-ydpi="676"
       inkscape:export-xdpi="676"
       inkscape:export-filename="C:\Users\Jakob.Heitzmann\rect12.png"
       id="path150"
       d="m 69.851934,29.896713 c -0.0366,-0.02571 -2.862568,-0.277859 -2.854132,-0.254722 0.01176,0.03235 1.229439,2.577772 1.234975,2.581649 0.0019,0.0013 0.369294,-0.52007 0.816436,-1.158663 0.44714,-0.638595 0.808408,-1.164288 0.802573,-1.168372 z"
       style="fill:#ffffff;stroke-width:0.0217948" />
    <path
       inkscape:export-ydpi="676"
       inkscape:export-xdpi="676"
       inkscape:export-filename="C:\Users\Jakob.Heitzmann\rect12.png"
       id="path152"
       d="m 69.851934,29.896713 c -0.0366,-0.02571 -2.862568,-0.277859 -2.854132,-0.254722 0.01176,0.03235 1.229439,2.577772 1.234975,2.581649 0.0019,0.0013 0.369294,-0.52007 0.816436,-1.158663 0.44714,-0.638595 0.808408,-1.164288 0.802573,-1.168372 z"
       style="fill:#ffffff;stroke-width:0.0217948" />
    <path
       inkscape:export-ydpi="676"
       inkscape:export-xdpi="676"
       inkscape:export-filename="C:\Users\Jakob.Heitzmann\rect12.png"
       id="path154"
       d="m 69.924806,29.842145 c -0.03898,-0.02738 -3.043832,-0.304173 -3.034786,-0.279603 0.01264,0.03435 1.315433,2.738022 1.321327,2.742153 0.0021,0.0014 0.391011,-0.550235 0.864217,-1.226037 0.47317,-0.675817 0.855367,-1.232226 0.849293,-1.236473 z"
       style="fill:#000000;stroke-width:0.0231416" />
    <rect
       inkscape:export-ydpi="676"
       inkscape:export-xdpi="676"
       inkscape:export-filename="C:\Users\Jakob.Heitzmann\rect12.png"
       ry="0"
       y="74.329491"
       x="-14.761987"
       height="7.5"
       width="1.2"
       id="rect156"
       style="fill:#000000;stroke-width:0.102473"
       transform="matrix(-0.57357644,0.81915204,0.81915204,0.57357644,0,0)" />
  </g>
</svg>
